<?xml version="1.0" encoding="UTF-8"?>
<svg version="1.1" xmlns="http://www.w3.org/2000/svg" width="300" height="300">
<path d="M0 0 C2 1 2 1 3.05883789 3.62475586 C3.63492798 5.40184937 3.63492798 5.40184937 4.22265625 7.21484375 C4.54903328 8.20848434 4.54903328 8.20848434 4.88200378 9.22219849 C5.61541674 11.45853728 6.33873396 13.69802231 7.0625 15.9375 C8.12757812 19.19660666 9.19840402 22.4538146 10.26953125 25.7109375 C10.55718353 26.58772659 10.84483582 27.46451569 11.14120483 28.36787415 C13.56518083 35.73514992 16.06052373 43.07696881 18.57421875 50.4140625 C19.1552108 52.11167473 19.1552108 52.11167473 19.74794006 53.84358215 C21.30169236 58.3816169 22.85628956 62.91933997 24.41824341 67.45455933 C25.51719356 70.64673949 26.61062526 73.84076383 27.703125 77.03515625 C28.03692673 77.99922394 28.37072845 78.96329163 28.71464539 79.95657349 C29.16768791 81.28529984 29.16768791 81.28529984 29.62988281 82.64086914 C29.89569153 83.41386856 30.16150024 84.18686798 30.43536377 84.98329163 C31 87 31 87 31 90 C32.31677734 89.99476318 33.63355469 89.98952637 34.99023438 89.98413086 C60.68009241 89.89095086 86.32983188 89.9090106 112 91 C112 91.33 112 91.66 112 92 C82.3 96.62 52.6 101.24 22 106 C20.1881206 103.2821809 19.26928663 101.21661817 18.22827148 98.16479492 C17.72281044 96.69262764 17.72281044 96.69262764 17.20713806 95.1907196 C16.84874344 94.13133682 16.49034882 93.07195404 16.12109375 91.98046875 C15.56289696 90.34347771 15.56289696 90.34347771 14.99342346 88.67341614 C14.20706673 86.36333789 13.42294011 84.05249949 12.64086914 81.7409668 C11.44503505 78.20975048 10.23962227 74.68190883 9.03320312 71.15429688 C8.27025184 68.90905168 7.5078635 66.66361509 6.74609375 64.41796875 C6.3856749 63.36465866 6.02525604 62.31134857 5.65391541 61.22612 C4.06218096 56.50128938 2.578898 51.97831014 2 47 C1.34 47 0.68 47 0 47 C-0.11410217 47.55252441 -0.22820435 48.10504883 -0.34576416 48.67431641 C-1.48623052 54.0202082 -2.90250126 59.18468942 -4.609375 64.375 C-4.8586676 65.14320068 -5.10796021 65.91140137 -5.36480713 66.70288086 C-5.89063842 68.32030663 -6.41847642 69.93708129 -6.94824219 71.55322266 C-7.7385119 73.96494101 -8.52214563 76.37873333 -9.3046875 78.79296875 C-10.58841787 82.7457355 -11.90216155 86.68788768 -13.22143555 90.62890625 C-14.01528263 93.04654279 -14.7683117 95.47446716 -15.51757812 97.90625 C-16.01625745 99.45854861 -16.5155805 101.01064061 -17.015625 102.5625 C-17.22733337 103.2831665 -17.43904175 104.00383301 -17.65716553 104.74633789 C-18.71209931 107.93528026 -19.41667742 109.68204355 -22.41821289 111.31811523 C-23.60020264 111.54313721 -24.78219238 111.76815918 -26 112 C-26.85808258 112.175242 -27.71616516 112.35048401 -28.60025024 112.53103638 C-31.82481267 113.17600152 -35.05653043 113.76528678 -38.29296875 114.34765625 C-40.06744133 114.67279457 -40.06744133 114.67279457 -41.87776184 115.00450134 C-45.64694008 115.69459752 -49.41713421 116.37892434 -53.1875 117.0625 C-56.96843253 117.75040066 -60.7491262 118.43955193 -64.52937317 119.13121033 C-66.87943577 119.56095663 -69.22991997 119.98840494 -71.58085632 120.41334534 C-72.64238419 120.60702194 -73.70391205 120.80069855 -74.79760742 121.00024414 C-75.73215256 121.16964005 -76.66669769 121.33903595 -77.62956238 121.51356506 C-80.1336785 121.97841043 -80.1336785 121.97841043 -83 123 C-81.27329053 124.21885375 -79.54657341 125.43769666 -77.81982422 126.65649414 C-76.2939822 127.73362705 -74.76826944 128.81094309 -73.24267578 129.88842773 C-69.36914436 132.62382704 -65.49399344 135.35682683 -61.61328125 138.08203125 C-60.90163818 138.58250977 -60.18999512 139.08298828 -59.45678711 139.59863281 C-58.1394354 140.52496574 -56.82133305 141.45023287 -55.50219727 142.37402344 C-48.2560687 147.47373222 -41.13685336 152.74915668 -34 158 C-34.18792114 158.74502274 -34.37584229 159.49004547 -34.56945801 160.25764465 C-36.33892554 167.27542911 -38.10500383 174.29405356 -39.86727142 181.31364918 C-40.77341131 184.92254614 -41.68086287 188.5311027 -42.59130859 192.13891602 C-43.46971958 195.61998858 -44.34468949 199.10190939 -45.2172699 202.58444786 C-45.55095244 203.91363062 -45.88587838 205.24250187 -46.22206116 206.57105446 C-46.69233676 208.43041348 -47.15780301 210.2909869 -47.62304688 212.15161133 C-47.88952026 213.21084305 -48.15599365 214.27007477 -48.43054199 215.36140442 C-49.10548073 218.03885618 -49.10548073 218.03885618 -49 221 C-43.35207977 216.47729405 -37.82357894 211.90107268 -32.5 207 C-28.03765189 202.89311632 -23.425586 199.04162089 -18.70703125 195.234375 C-15.13008151 192.28197204 -11.70505377 189.17905438 -8.2890625 186.04296875 C-5.92682154 183.93468885 -3.4886424 181.95661814 -1 180 C2.69968753 181.38571027 6.02573955 183.06666273 9.4375 185.0546875 C10.48824707 185.6643335 11.53899414 186.27397949 12.62158203 186.90209961 C13.73645996 187.55315674 14.85133789 188.20421387 16 188.875 C17.74139937 189.88698082 19.48349582 190.89775449 21.22561646 191.90849304 C22.40624046 192.5935821 23.58663905 193.27905974 24.76681519 193.96492004 C30.5368827 197.31713469 36.32841018 200.63137938 42.125 203.9375 C43.02476562 204.45103027 43.92453125 204.96456055 44.8515625 205.49365234 C46.90075433 206.66294001 48.95021127 207.83175915 51 209 C48.34231464 198.6943484 45.58537225 188.42289463 42.66796875 178.1875 C42.38382111 177.19016846 42.09967346 176.19283691 41.80691528 175.1652832 C40.63405982 171.0546569 39.45861525 166.94478451 38.27954102 162.8359375 C37.40559879 159.78742279 36.53646193 156.73757079 35.66796875 153.6875 C35.39929489 152.75639404 35.13062103 151.82528809 34.85380554 150.8659668 C34.60967422 150.00656494 34.36554291 149.14716309 34.11401367 148.26171875 C33.89815109 147.50850342 33.68228851 146.75528809 33.45988464 145.97924805 C33 144 33 144 33 141 C33.69746338 140.61368408 34.39492676 140.22736816 35.11352539 139.8293457 C47.26644562 133.09517826 59.41297338 126.35197047 71.5 119.5 C74.30221826 117.91571491 77.10487967 116.33221685 79.90771484 114.74902344 C82.135837 113.48877812 84.36267455 112.22641292 86.58837891 110.96191406 C89.71329673 109.18732206 92.84297033 107.42136494 95.97558594 105.66040039 C97.19450122 104.97334301 98.41180859 104.28342474 99.62744141 103.59057617 C101.31642725 102.62847495 103.01159321 101.67724739 104.70703125 100.7265625 C105.6813208 100.17564941 106.65561035 99.62473633 107.65942383 99.05712891 C108.43181396 98.70827637 109.2042041 98.35942383 110 98 C110.66 98.33 111.32 98.66 112 99 C104.77744553 105.01349249 97.40739033 110.81023512 89.97363281 116.55859375 C84.879398 120.50879326 79.85715098 124.53465837 74.875 128.625 C67.10189259 135.00135425 59.08812491 141.03070569 51 147 C52.41960895 154.93479641 54.48212347 162.61924348 56.703125 170.36328125 C57.24353424 172.26499336 57.24353424 172.26499336 57.79486084 174.2051239 C58.74918438 177.56317236 59.70815367 180.91987625 60.66815186 184.27630615 C61.62406328 187.62154492 62.57548484 190.96805949 63.52734375 194.31445312 C67.67849504 208.91196374 67.67849504 208.91196374 71.88476562 223.49365234 C72.16801697 224.47182419 72.45126831 225.44999603 72.74310303 226.45780945 C73.26268869 228.25015114 73.7854607 230.04157356 74.31207275 231.8318634 C75.22184416 234.97559877 76 237.7090915 76 241 C71.33986272 239.33436499 67.24829327 236.93470302 63 234.4375 C62.18966309 233.96497803 61.37932617 233.49245605 60.54443359 233.00561523 C57.69371987 231.34142759 54.8465524 229.67129534 52 228 C50.88270508 227.34418945 49.76541016 226.68837891 48.61425781 226.01269531 C48.03035782 225.66994568 47.44645782 225.32719604 46.84486389 224.97406006 C44.39568605 223.53640332 41.94645724 222.09883345 39.49716187 220.66137695 C38.24986186 219.92926652 37.002649 219.19700759 35.75552368 218.46459961 C24.5541756 211.88740577 13.30072247 205.40518407 2 199 C-1.86101066 201.14500592 -4.91138935 203.60324671 -8.125 206.625 C-12.71760748 210.87239135 -17.45010392 214.8576016 -22.31640625 218.78515625 C-24.94708557 220.95632827 -27.47942424 223.20241357 -30 225.5 C-34.29991791 229.41891252 -38.75919547 233.09170869 -43.28125 236.75 C-45.92147729 238.93501569 -48.4672972 241.19171391 -51 243.5 C-55.33196142 247.44689818 -59.81665284 251.1613449 -64.37109375 254.84765625 C-67.99150687 257.81176863 -71.5070741 260.88739268 -75 264 C-76.09865797 260.68149759 -75.87988401 258.57939298 -74.98706055 255.22363281 C-74.7386441 254.27056747 -74.49022766 253.31750214 -74.23428345 252.33555603 C-73.9545871 251.30185379 -73.67489075 250.26815155 -73.38671875 249.203125 C-73.10122162 248.11725601 -72.81572449 247.03138702 -72.52157593 245.91261292 C-71.90553885 243.57335886 -71.28524317 241.23522303 -70.66116333 238.89810181 C-69.35732143 234.01289369 -68.07561956 229.12196825 -66.79252625 224.23127747 C-65.81991816 220.5258414 -64.84409441 216.82126146 -63.86816406 213.11669922 C-61.44158789 203.88877134 -59.05479755 194.65113969 -56.71817017 185.40002441 C-56.28220222 183.67952873 -55.84290744 181.95987252 -55.40023804 180.24108887 C-54.79161636 177.87745897 -54.19324181 175.51147404 -53.59765625 173.14453125 C-53.41818451 172.45645889 -53.23871277 171.76838654 -53.05380249 171.0594635 C-52.25154946 167.82010274 -51.92002041 166.23993877 -53 163 C-54.63143889 161.58060311 -54.63143889 161.58060311 -56.69140625 160.28515625 C-57.84902466 159.51244385 -57.84902466 159.51244385 -59.0300293 158.72412109 C-59.86574463 158.17578613 -60.70145996 157.62745117 -61.5625 157.0625 C-67.90084187 152.82265919 -74.12616809 148.50283681 -80.1875 143.875 C-86.61599206 138.98368653 -93.19301293 134.366766 -99.87109375 129.82421875 C-104.45075054 126.70551584 -108.97703118 123.51265566 -113.5 120.3125 C-114.24886475 119.78269531 -114.99772949 119.25289063 -115.76928711 118.70703125 C-117.51342579 117.47215561 -119.25680217 116.23620341 -121 115 C-118.29747058 112.29747058 -115.49462472 112.14764106 -111.86328125 111.51953125 C-111.12802719 111.38590179 -110.39277313 111.25227234 -109.63523865 111.11459351 C-107.19560481 110.67309589 -104.7541261 110.24283113 -102.3125 109.8125 C-100.61282652 109.50698424 -98.91328382 109.20074005 -97.21386719 108.89379883 C-92.72755862 108.08539621 -88.23963377 107.2863481 -83.75128174 106.48937988 C-78.33144079 105.52533426 -72.91349617 104.55070262 -67.49531555 103.57737732 C-63.27121304 102.81873261 -59.04684336 102.06170686 -54.8215332 101.30981445 C-47.19765631 99.95115488 -39.58560744 98.5612947 -32 97 C-31.5035498 95.46520996 -31.5035498 95.46520996 -30.99707031 93.89941406 C-23.54039313 70.85705362 -15.99084133 47.84848932 -8.29980469 24.88330078 C-6.44392686 19.3408486 -4.59701717 13.79540997 -2.75 8.25 C-2.2031709 6.6093597 -1.65630215 4.96873261 -1.109375 3.328125 C-0.74328125 2.22984375 -0.3771875 1.1315625 0 0 Z " fill="#F6BF24" transform="translate(153,18)"/>
<path d="M0 0 C0.66 0 1.32 0 2 0 C2.3403125 1.175625 2.3403125 1.175625 2.6875 2.375 C3.78125 5.21875 3.78125 5.21875 6.625 6.3125 C7.800625 6.6528125 7.800625 6.6528125 9 7 C7 9 7 9 4 10 C2.29144978 13.00007271 2.29144978 13.00007271 1 16 C0 14 -1 12 -2 10 C-3.64363134 9.27840576 -5.31050386 8.60648579 -7 8 C-5 6 -5 6 -2 5 C-0.78130071 2.49552484 -0.78130071 2.49552484 0 0 Z " fill="#F2BF29" transform="translate(230,80)"/>
<path d="M0 0 C1.33333333 2 2.66666667 4 4 6 C6.05003955 7.19232613 6.05003955 7.19232613 8 8 C7.34 8.66 6.68 9.32 6 10 C5.01 10 4.02 10 3 10 C2.34 11.98 1.68 13.96 1 16 C-1 15 -1 15 -1.8125 13.0625 C-3.39241741 10.31843292 -5.0515206 9.93109876 -8 9 C-6 7 -6 7 -4 6.1875 C-1.32128129 4.59701076 -0.916595 2.90255082 0 0 Z " fill="#F2BF26" transform="translate(196,61)"/>
<path d="M0 0 C3 3.75 3 3.75 3 6 C4.65 6.33 6.3 6.66 8 7 C8 7.66 8 8.32 8 9 C6.35 9.33 4.7 9.66 3 10 C2.34 11.98 1.68 13.96 1 16 C0.34 15.01 -0.32 14.02 -1 13 C-3.06240784 10.66858245 -3.94215189 10.0192827 -7 9 C-7 8.34 -7 7.68 -7 7 C-5.824375 6.6596875 -5.824375 6.6596875 -4.625 6.3125 C-1.78125 5.21875 -1.78125 5.21875 -0.6875 2.375 C-0.460625 1.59125 -0.23375 0.8075 0 0 Z " fill="#F3C028" transform="translate(115,49)"/>
<path d="M0 0 C0.66 0 1.32 0 2 0 C2.3403125 1.175625 2.3403125 1.175625 2.6875 2.375 C3.78125 5.21875 3.78125 5.21875 6.625 6.3125 C7.800625 6.6528125 7.800625 6.6528125 9 7 C7 8.33333333 5 9.66666667 3 11 C2.27617533 13.05925139 2.27617533 13.05925139 2 15 C1.34 15 0.68 15 0 15 C-0.3403125 13.824375 -0.3403125 13.824375 -0.6875 12.625 C-1.78125 9.78125 -1.78125 9.78125 -4.625 8.6875 C-5.40875 8.460625 -6.1925 8.23375 -7 8 C-3.25 5 -3.25 5 -1 5 C-0.67 3.35 -0.34 1.7 0 0 Z " fill="#F3C129" transform="translate(59,90)"/>
<path d="M0 0 C2 2 2 2 2.8125 4 C4.40298924 6.67871871 6.09744918 7.083405 9 8 C7 9.33333333 5 10.66666667 3 12 C1.80767387 14.05003955 1.80767387 14.05003955 1 16 C0.34 15.01 -0.32 14.02 -1 13 C-3.09684226 10.61722471 -5.1072274 9.29676013 -8 8 C-5.69 7.34 -3.38 6.68 -1 6 C-0.67 4.02 -0.34 2.04 0 0 Z " fill="#F2C02B" transform="translate(73,50)"/>
<path d="M0 0 C0.66 0.33 1.32 0.66 2 1 C-2.455 4.465 -2.455 4.465 -7 8 C-8.32 7.34 -9.64 6.68 -11 6 C-9.21385682 4.96953278 -7.42089982 3.95086764 -5.625 2.9375 C-4.62726563 2.36902344 -3.62953125 1.80054687 -2.6015625 1.21484375 C-1.74304688 0.81394531 -0.88453125 0.41304688 0 0 Z " fill="#EABA26" transform="translate(263,116)"/>
<path d="" fill="#D8B021" transform="translate(0,0)"/>
<path d="" fill="#E7CA4D" transform="translate(0,0)"/>
</svg>
